<svg id="visual" viewBox="0 0 1920 1080" width="1920" height="1080" xmlns="http://www.w3.org/2000/svg" xmlns:xlink="http://www.w3.org/1999/xlink" version="1.1"><path d="M0 44L80 44C160 44 320 44 480 60.2C640 76.3 800 108.7 960 115.8C1120 123 1280 105 1440 115.8C1600 126.7 1760 166.3 1840 186.2L1920 206L1920 0L1840 0C1760 0 1600 0 1440 0C1280 0 1120 0 960 0C800 0 640 0 480 0C320 0 160 0 80 0L0 0Z" fill="#6198ff"></path><path d="M0 195L80 187.8C160 180.7 320 166.3 480 182.7C640 199 800 246 960 249.7C1120 253.3 1280 213.7 1440 210C1600 206.3 1760 238.7 1840 254.8L1920 271L1920 204L1840 184.2C1760 164.3 1600 124.7 1440 113.8C1280 103 1120 121 960 113.8C800 106.7 640 74.3 480 58.2C320 42 160 42 80 42L0 42Z" fill="#2975ff"></path><path d="M0 249L80 240C160 231 320 213 480 232.8C640 252.7 800 310.3 960 321.2C1120 332 1280 296 1440 287C1600 278 1760 296 1840 305L1920 314L1920 269L1840 252.8C1760 236.7 1600 204.3 1440 208C1280 211.7 1120 251.3 960 247.7C800 244 640 197 480 180.7C320 164.3 160 178.7 80 185.8L0 193Z" fill="#005be1"></path><path d="M0 390L80 409.8C160 429.7 320 469.3 480 478.3C640 487.3 800 465.7 960 462C1120 458.3 1280 472.7 1440 524.8C1600 577 1760 667 1840 712L1920 757L1920 312L1840 303C1760 294 1600 276 1440 285C1280 294 1120 330 960 319.2C800 308.3 640 250.7 480 230.8C320 211 160 229 80 238L0 247Z" fill="#004cbb"></path><path d="M0 692L80 719C160 746 320 800 480 805.5C640 811 800 768 960 733.8C1120 699.7 1280 674.3 1440 708.5C1600 742.7 1760 836.3 1840 883.2L1920 930L1920 755L1840 710C1760 665 1600 575 1440 522.8C1280 470.7 1120 456.3 960 460C800 463.7 640 485.3 480 476.3C320 467.3 160 427.7 80 407.8L0 388Z" fill="#004cbb"></path><path d="M0 822L80 843.5C160 865 320 908 480 904.3C640 900.7 800 850.3 960 818C1120 785.7 1280 771.3 1440 803.8C1600 836.3 1760 915.7 1840 955.3L1920 995L1920 928L1840 881.2C1760 834.3 1600 740.7 1440 706.5C1280 672.3 1120 697.7 960 731.8C800 766 640 809 480 803.5C320 798 160 744 80 717L0 690Z" fill="#005be1"></path><path d="M0 843L80 871.8C160 900.7 320 958.3 480 967.3C640 976.3 800 936.7 960 909.7C1120 882.7 1280 868.3 1440 888.2C1600 908 1760 962 1840 989L1920 1016L1920 993L1840 953.3C1760 913.7 1600 834.3 1440 801.8C1280 769.3 1120 783.7 960 816C800 848.3 640 898.7 480 902.3C320 906 160 863 80 841.5L0 820Z" fill="#2975ff"></path><path d="M0 1081L80 1081C160 1081 320 1081 480 1081C640 1081 800 1081 960 1081C1120 1081 1280 1081 1440 1081C1600 1081 1760 1081 1840 1081L1920 1081L1920 1014L1840 987C1760 960 1600 906 1440 886.2C1280 866.3 1120 880.7 960 907.7C800 934.7 640 974.3 480 965.3C320 956.3 160 898.7 80 869.8L0 841Z" fill="#6198ff"></path></svg>